# xmcd CD database file
#
# Track frame offsets:
#	150
#	21554
#	27866
#	42866
#	56579
#	74753
#	94553
#	117435
#	138188
#	157021
#	172363
#	189021
#	209188
#	225375
#	246772
#	267100
#	284501
#	296126
#	315934
#
# Disc length: 4493 seconds
#
# Revision: 0
# Processed by: cddbd v1.5.2PL0 Copyright (c) Steve Scherf et al.
# Submitted via: CDex 1.70beta2
#
DISCID=1f118b13
DTITLE=Hello!Project - ハロー!プロジェクトの全曲から集めちゃいました! Vol.2 吉田豪編
DYEAR=2014
DGENRE=Hello!Project
TTITLE0=The☆Peace!(H&A Death Tracks) - HANGRY&ANGRY-f
TTITLE1=恋のツイスト&笑っちゃいなタウン - 後藤真希・幸野友之・平沼紀久・ユウジ・SHU-110
TTITLE2=ドレミファどうして? - 真野恵里菜 
TTITLE3=理解して>女の子 - 石川梨華 
TTITLE4=I and YOU and I and YOU and I - タンポポ
TTITLE5=あすはデートなのに、今すぐ声が聞きたい - スマイレージ
TTITLE6=マジ夏すぎる - Berryz工房
TTITLE7=わたしのたまご - しゅごキャラエッグ! 
TTITLE8=白いTOKYO - ZYX
TTITLE9=盗んだハートはココですよ? - 田中れいな(モーニング娘。) コーラス:小倉 唯 with ぷるぷるいゃ～ん(能登有沙&三澤紗千香)
TTITLE10=アイドルール - リルぷりっ
TTITLE11=タンタンターン! - MilkyWay
TTITLE12=ロボキッス - W
TTITLE13=ラララのピピピ - 道重さゆみ
TTITLE14=エコのワルツ - あややム with エコハムず
TTITLE15=GIVE ME UP - メロン記念日
TTITLE16=恋するニワトリ - THE ポッシボー
TTITLE17=ひとりぼっちの部屋 - 矢口真里
TTITLE18=キマグレ絶望アリガトウ - モモ(鞘師里保)&コーラス:モーニング娘。
EXTD=YEAR: 2014
EXTT0=
EXTT1=
EXTT2=
EXTT3=
EXTT4=
EXTT5=
EXTT6=
EXTT7=
EXTT8=
EXTT9=
EXTT10=
EXTT11=
EXTT12=
EXTT13=
EXTT14=
EXTT15=
EXTT16=
EXTT17=
EXTT18=
PLAYORDER=
